<svg xmlns="http://www.w3.org/2000/svg" viewBox="0 0 779.42 779.42"><defs><style>.cls-1{fill:#098dc7;}.cls-2{fill:none;stroke:#1d1d1b;stroke-width:20px;}.cls-2,.cls-3{stroke-miterlimit:10;}.cls-3{fill:#fff;stroke:#fff;}</style></defs><g id="Layer_1" data-name="Layer 1"><rect class="cls-1" width="779.42" height="779.42" rx="49.14"/></g><g id="Layer_2" data-name="Layer 2"><ellipse class="cls-2" cx="388.71" cy="385.88" rx="328.78" ry="328.82"/><ellipse class="cls-2" cx="393.57" cy="384.32" rx="220.04" ry="220.07"/><ellipse class="cls-2" cx="389.24" cy="385.87" rx="182.54" ry="177.58"/><line class="cls-2" x1="344.22" y1="61.07" x2="345.84" y2="173.52"/><line class="cls-2" x1="430.78" y1="55.01" x2="432.4" y2="167.46"/><line class="cls-2" x1="647.59" y1="187.28" x2="558.6" y2="235.82"/><line class="cls-2" x1="698.56" y1="261.7" x2="603.91" y2="312.67"/><line class="cls-2" x1="694.51" y1="513.3" x2="600.67" y2="459.1"/><line class="cls-2" x1="650.02" y1="590.96" x2="558.6" y2="533.52"/><line class="cls-2" x1="432.4" y1="709.07" x2="432.4" y2="603.91"/><line class="cls-2" x1="340.98" y1="712.31" x2="340.17" y2="591.77"/><line class="cls-2" x1="131.46" y1="589.34" x2="227.73" y2="532.71"/><line class="cls-2" x1="187.28" y1="453.43" x2="86.15" y2="509.25"/><line class="cls-2" x1="183.23" y1="319.14" x2="84.53" y2="264.94"/><line class="cls-2" x1="128.22" y1="186.47" x2="221.25" y2="238.24"/></g><g id="Layer_3" data-name="Layer 3"><path class="cls-3" d="M327.4,570.08q-29,0-49.21-16.86T258,511.93V337.48H561.45A29.31,29.31,0,0,1,581,344.26q8.06,6.8,8,16.48v62q0,9.69-8,16.47A29.31,29.31,0,0,1,561.45,446H517.31v65.9q0,24.42-20.24,41.29t-49.2,16.86ZM517.31,422.77h44.14v-62H517.31ZM331.73,173.43c-28.59,28.95-29.31,49.44-24.81,61.49s7.78,18.31,9.17,32.36c2.87,29.06-21.29,47.35-17.26,51.23s32.49-8,39.37-30.47c6.73-22.06-24.09-42-9.26-66.88,10-16.83,1.71-41.88,2.79-47.73M260.35,283.28,409.16,116.37c-34.78,36.84-35.68,62.9-30.23,78.22s9.44,23.27,11.11,41.14c3.45,37-25.93,60.25-21.05,65.18s39.52-10.17,47.9-38.8c8.22-28.07-29.23-53.36-11.17-85,12.21-21.43,2.13-53.27,3.44-60.7m72.83,38c-30,31.2-30.78,53.28-26.07,66.26s8.15,19.72,9.6,34.85c3,31.32-22.36,51-18.14,55.21s34.1-8.59,41.33-32.85c7.08-23.77-25.25-45.21-9.68-72,10.54-18.15,1.82-45.13,3-51.43"/></g></svg>